<svg xmlns="http://www.w3.org/2000/svg" width="167" height="40" fill="none" viewBox="0 0 167 40" aria-label="iDGarages"><path fill="#fff" d="M142.995 35.444c0-2.572 1.95-4.426 4.427-4.426s4.426 1.854 4.426 4.426-1.95 4.443-4.426 4.443-4.427-1.87-4.427-4.443m4.427 2.573c1.39 0 2.444-1.055 2.444-2.573s-1.054-2.572-2.444-2.572c-1.391 0-2.445 1.054-2.445 2.572s1.054 2.573 2.445 2.573m-15.398.616q0-.447.335-.782.334-.334.781-.334.446 0 .781.334.335.335.335.782 0 .445-.335.781a1.07 1.07 0 0 1-.781.335q-.447 0-.781-.335a1.07 1.07 0 0 1-.335-.781m3.362-3.189c0-2.572 1.838-4.346 4.411-4.346.383 0 1.498.047 1.993.112v1.805c-.447-.064-1.482-.096-1.769-.096-1.662 0-2.653 1.055-2.653 2.525 0 1.486.991 2.51 2.653 2.51.287 0 1.322-.033 1.769-.08v1.805c-.495.08-1.61.112-1.993.112-2.573 0-4.411-1.758-4.411-4.347m21.359-4.426c1.199 0 2.078.48 2.557 1.23.479-.75 1.358-1.23 2.572-1.23 2.014 0 3.244 1.342 3.244 3.611v5.034h-1.981V34.58c0-1.07-.512-1.71-1.391-1.71-.91 0-1.438.64-1.438 1.774v5.018h-1.981v-5.018c0-1.134-.544-1.773-1.438-1.773-.895 0-1.39.639-1.39 1.71v5.08h-1.982V34.63c0-2.27 1.215-3.612 3.228-3.612M8.565 17.216c0-5.484 4.071-9.252 8.882-9.252 1.75 0 3.432.505 4.676 1.514a88 88 0 0 1-.1-4.273V.837h5.315v25.294h-4.71l-.034-1.615c-1.21 1.279-3.162 1.951-5.147 1.951-4.81 0-8.882-3.768-8.882-9.251m9.589 4.407c2.422 0 4.205-1.716 4.205-4.407s-1.783-4.407-4.205-4.407c-2.457 0-4.273 1.716-4.273 4.407s1.816 4.407 4.273 4.407M3.21.065a2.989 2.989 0 0 1 0 5.978 2.989 2.989 0 1 1 0-5.978M.553 8.3h5.315v17.831H.553z"/><path fill="#fff" d="M30.274 13.28C30.274 5.622 35.8.064 43.417.064c4.047 0 7.68 1.543 10.265 4.691l-3.957 3.79C48.086 6.357 45.78 5.33 43.417 5.33c-4.453 0-7.563 3.282-7.563 7.983 0 6.658 6.65 13.76 7.563 14.704.695-.717 4.714-5 6.586-9.919h-7.169v-4.966H56.56c0 10.721-11.34 20.743-13.143 22.266-1.837-1.54-13.143-11.646-13.143-22.119m42.521-3.362c-1.21-1.278-3.162-1.95-5.146-1.95-4.81 0-8.88 3.767-8.88 9.25s4.07 9.25 8.88 9.25c1.984 0 3.935-.672 5.146-1.95l.034 1.614h4.709V8.303h-4.71zm-4.44 11.706c-2.456 0-4.272-1.715-4.272-4.406s1.817-4.407 4.272-4.407c2.422 0 4.205 1.716 4.205 4.407s-1.783 4.406-4.205 4.406m12.327-6.862v11.37h5.315V14.627c0-1.077.471-1.547 1.547-1.547h3.879V8.303H87.04c-3.97 0-6.358 1.985-6.358 6.458m25.798-4.843c-1.211-1.278-3.162-1.951-5.146-1.951-4.81 0-8.88 3.767-8.88 9.25s4.07 9.25 8.88 9.25c1.984 0 3.935-.672 5.146-1.95l.033 1.614h4.71V8.303h-4.71zm-4.44 11.705c-2.455 0-4.272-1.715-4.272-4.406s1.817-4.406 4.272-4.406c2.422 0 4.204 1.715 4.204 4.406s-1.782 4.406-4.204 4.406m25.875-11.706c-1.244-1.278-3.195-1.95-5.213-1.95-4.811 0-8.814 3.633-8.814 8.947 0 5.382 3.97 8.78 8.914 8.78 1.985 0 3.6-.538 4.71-1.581v.168c0 2.826-1.985 3.8-4.945 3.8h-4.373v4.778h4.272c5.887 0 10.193-2.658 10.193-9.083V8.303h-4.71zm-4.507 11.135c-2.455 0-4.204-1.682-4.204-4.138 0-2.49 1.749-4.104 4.204-4.104 2.49 0 4.272 1.615 4.272 4.104 0 2.456-1.782 4.138-4.272 4.138m39.4-5.652-.943-.672c-1.11-.774-1.446-1.144-1.446-1.547 0-.573.673-.909 2.085-.909.603 0 1.5.03 2.614.125v-4.18q-1.718-.15-3.286-.15c-4.172 0-6.559 1.918-6.559 5.214 0 1.985.84 3.398 2.892 4.911l1.043.774c1.144.841 1.547 1.346 1.547 1.918 0 .706-.571 1.043-1.95 1.043-.774 0-1.851-.101-3.331-.304v4.508c1.312.168 2.624.27 3.633.27 4.508 0 7.131-2.052 7.131-5.55 0-2.12-1.008-3.735-3.43-5.45m-13.814 5.026c-1.161 1.095-2.519 1.634-4.058 1.634-2.354 0-4.07-1.278-4.574-3.398h12.816c.74-7.467-3.734-10.798-8.611-10.798-5.181 0-9.217 3.801-9.217 9.42 0 5.449 3.801 9.283 9.486 9.283 3.128 0 5.7-1.162 7.627-3.25zm-4.461-8.256c1.985 0 3.33 1.01 3.734 2.826h-7.838c.572-1.716 2.086-2.826 4.104-2.826"/></svg>
